<svg xmlns="http://www.w3.org/2000/svg" width="128" height="128" viewBox="0 0 128 128">
  <defs>
    <linearGradient id="b" x1="0" y1="0" x2="1" y2="1">
      <stop offset="0" stop-color="#00A3E0"/>
      <stop offset="1" stop-color="#0066B3"/>
    </linearGradient>
    <filter id="g" x="-30%" y="-30%" width="160%" height="160%">
      <feGaussianBlur stdDeviation="4" result="blur"/>
      <feColorMatrix in="blur" type="matrix"
        values="1 0 0 0 0
                0 1 0 0 0
                0 0 1 0 0
                0 0 0 0.35 0" result="glow"/>
      <feMerge>
        <feMergeNode in="glow"/>
        <feMergeNode in="SourceGraphic"/>
      </feMerge>
    </filter>
  </defs>

  <rect x="8" y="8" width="112" height="112" rx="28" fill="url(#b)"/>

  <!-- Diagonal flag accent -->
  <g opacity="0.95">
    <path d="M-10 66 L66 -10 L76 0 L0 76 Z" fill="#FCD116"/>
    <path d="M-2 74 L74 -2 L92 16 L16 92 Z" fill="#CE1126"/>
    <path d="M6 82 L82 6 L92 16 L16 92 Z" fill="#FCD116"/>
  </g>

  <!-- Futuristic diamond -->
  <g filter="url(#g)">
    <path d="M64 40 L82 64 L64 88 L46 64 Z" fill="#FFFFFF" opacity="0.9"/>
    <path d="M64 44 L79 64 L64 84 L49 64 Z" fill="#FCD116" opacity="0.95"/>
  </g>
</svg>
<?xml version="1.0" encoding="UTF-8"?>
<svg xmlns="http://www.w3.org/2000/svg" viewBox="0 0 64 64" role="img" aria-label="KiBei">
  <defs>
    <linearGradient id="g" x1="0" y1="0" x2="1" y2="1">
      <stop offset="0" stop-color="#2563eb"/>
      <stop offset="1" stop-color="#1e40af"/>
    </linearGradient>
  </defs>
  <rect x="6" y="6" width="52" height="52" rx="12" fill="url(#g)"/>
  <path d="M22 22h20v6H28v4h12c2.2 0 4 1.8 4 4v6c0 2.2-1.8 4-4 4H22v-6h16v-4H26c-2.2 0-4-1.8-4-4v-6c0-2.2 1.8-4 4-4Z" fill="#ffffff"/>
</svg>


